HIERARCHY
ROOT Hips
{
	OFFSET 51.476898 -7.095299 56.169800
	CHANNELS 6 Xposition Yposition Zposition Xrotation Yrotation Zrotation
	JOINT spine
	{
		OFFSET 0.000000 -0.367607 6.392601
		CHANNELS 3 Xrotation Yrotation Zrotation
		JOINT spine1
		{
			OFFSET 0.000000 -0.000002 9.176109
			CHANNELS 3 Xrotation Yrotation Zrotation
			JOINT spine2
			{
				OFFSET 0.000000 -0.000001 8.792381
				CHANNELS 3 Xrotation Yrotation Zrotation
				JOINT Neck
				{
					OFFSET 0.000000 -1.076243 22.573700
					CHANNELS 3 Xrotation Yrotation Zrotation
					JOINT Head
					{
						OFFSET 0.000000 -0.000001 6.820107
						CHANNELS 3 Xrotation Yrotation Zrotation
						End Site
						{
							OFFSET 0.000000 5.444268 16.508499
						}
					}
				}
				JOINT RightShoulder
				{
					OFFSET -3.702209 0.515507 9.495087
					CHANNELS 3 Xrotation Yrotation Zrotation
					JOINT RightArm
					{
						OFFSET 0.000000 -0.000002 12.453697
						CHANNELS 3 Xrotation Yrotation Zrotation
						JOINT RightArmRoll
						{
							OFFSET 0.000000 -0.000001 6.286858
							CHANNELS 3 Xrotation Yrotation Zrotation
							JOINT RightForeArm
							{
								OFFSET 0.000000 -0.000003 18.311401
								CHANNELS 3 Xrotation Yrotation Zrotation
								JOINT RightForeArmRoll
								{
									OFFSET 0.000000 -0.000001 7.054832
									CHANNELS 3 Xrotation Yrotation Zrotation
									JOINT RightHand
									{
										OFFSET 0.000000 -0.000002 14.157501
										CHANNELS 3 Xrotation Yrotation Zrotation
										End Site
										{
											OFFSET 0.000000 0.000000 0.100006
										}
									}
								}
							}
						}
					}
				}
				JOINT LeftShoulder
				{
					OFFSET 3.702209 0.515507 9.495087
					CHANNELS 3 Xrotation Yrotation Zrotation
					JOINT LeftArm
					{
						OFFSET 0.000000 -0.000002 12.453697
						CHANNELS 3 Xrotation Yrotation Zrotation
						JOINT LeftArmRoll
						{
							OFFSET 0.000000 -0.000001 6.286850
							CHANNELS 3 Xrotation Yrotation Zrotation
							JOINT LeftForeArm
							{
								OFFSET 0.000000 -0.000003 18.311401
								CHANNELS 3 Xrotation Yrotation Zrotation
								JOINT LeftForeArmRoll
								{
									OFFSET 0.000000 -0.000001 7.054825
									CHANNELS 3 Xrotation Yrotation Zrotation
									JOINT LeftHand
									{
										OFFSET 0.000000 -0.000002 14.157501
										CHANNELS 3 Xrotation Yrotation Zrotation
										End Site
										{
											OFFSET 0.000000 0.000000 0.100006
										}
									}
								}
							}
						}
					}
				}
			}
		}
	}
	JOINT RightUpLeg
	{
		OFFSET -5.666161 0.871610 -1.039028
		CHANNELS 3 Xrotation Yrotation Zrotation
		JOINT RightUpLegRoll
		{
			OFFSET 0.000000 -0.000003 16.600498
			CHANNELS 3 Xrotation Yrotation Zrotation
			JOINT RightLeg
			{
				OFFSET 0.000000 0.000004 -20.557198
				CHANNELS 3 Xrotation Yrotation Zrotation
				JOINT RightLegRoll
				{
					OFFSET 0.000000 -0.000004 20.624397
					CHANNELS 3 Xrotation Yrotation Zrotation
					JOINT RightFoot
					{
						OFFSET 0.000000 -0.000002 17.166405
						CHANNELS 3 Xrotation Yrotation Zrotation
						JOINT RightToeBase
						{
							OFFSET 0.000000 -0.000002 14.350197
							CHANNELS 3 Xrotation Yrotation Zrotation
							End Site
							{
								OFFSET 0.006081 0.801060 6.949699
							}
						}
					}
				}
			}
		}
	}
	JOINT LeftUpLeg
	{
		OFFSET 5.666161 0.871610 -1.039028
		CHANNELS 3 Xrotation Yrotation Zrotation
		JOINT LeftUpLegRoll
		{
			OFFSET 0.000000 -0.000003 16.600597
			CHANNELS 3 Xrotation Yrotation Zrotation
			JOINT LeftLeg
			{
				OFFSET 0.000000 -0.000003 20.557098
				CHANNELS 3 Xrotation Yrotation Zrotation
				JOINT LeftLegRoll
				{
					OFFSET 0.000000 -0.000003 20.815102
					CHANNELS 3 Xrotation Yrotation Zrotation
					JOINT LeftFoot
					{
						OFFSET 0.000000 -0.000002 16.975700
						CHANNELS 3 Xrotation Yrotation Zrotation
						JOINT LeftToeBase
						{
							OFFSET 0.000000 -0.000002 14.350204
							CHANNELS 3 Xrotation Yrotation Zrotation
							End Site
							{
								OFFSET -0.027260 0.801059 6.949707
							}
						}
					}
				}
			}
		}
	}
}
MOTION
Frames: 5
Frame Time: 0.041667
53.736599 -46.030315 85.873489 -2.126617 0.938449 0.591724 -1.602683 0.307438 -0.235858 0.778665 0.609216 -0.480457 2.423755 0.603492 -0.487938 6.610211 -4.413849 0.612235 3.406913 2.504032 1.003728 -7.986332 -61.118049 -9.560500 -42.424392 -116.241705 -39.439872 -0.000000 -0.000002 -0.000006 7.194898 -15.592837 0.779618 0.000002 0.000010 -3.000001 -5.000197 -7.998802 0.000176 -7.347076 53.231072 8.198673 -35.078117 118.931857 36.375521 -0.000003 -0.000023 0.000006 4.693669 13.068244 -0.142715 -0.000003 -0.000005 3.000002 -5.000228 7.998722 -0.000177 0.327391 -177.232057 0.674094 -179.999991 0.000005 -1.043006 173.580064 -4.090282 -0.656844 0.000003 -0.000000 0.065198 68.017585 6.868787 2.260902 25.456916 -7.346683 0.000003 1.791268 176.106893 1.055873 -0.000005 -0.000004 -1.110190 -5.254701 0.980114 0.473106 -0.000004 -0.000001 -0.026648 68.949025 -6.895081 -2.132996 25.632071 7.354815 -0.261809 
53.736599 -46.024418 85.873886 -2.118812 0.938591 0.596277 -1.602971 0.306984 -0.236299 0.778044 0.609035 -0.480232 2.423134 0.603309 -0.487695 6.616128 -4.419449 0.611348 3.409126 2.510175 1.002706 -7.986679 -61.117933 -9.560939 -42.427274 -116.231624 -39.463071 0.000001 -0.000002 -0.000005 7.237446 -15.601175 0.786523 0.000001 0.000010 -3.000001 -5.000203 -7.998803 0.000176 -7.338193 53.230212 8.187771 -35.081450 118.931721 36.395906 -0.000003 -0.000023 0.000006 4.722549 13.078687 -0.146554 -0.000004 -0.000005 3.000002 -5.000229 7.998721 -0.000178 0.314688 -177.237043 0.666636 -179.999991 0.000005 -1.043006 173.578329 -4.083303 -0.656186 0.000002 -0.000000 0.064688 68.015591 6.868804 2.260330 25.456914 -7.346684 0.000003 1.778939 176.107876 1.061411 -0.000005 -0.000004 -1.110080 -5.251573 0.975839 0.473102 -0.000004 -0.000001 -0.026650 68.944995 -6.895063 -2.133042 25.631364 7.354815 -0.260738 
53.747501 -46.023914 85.868881 -2.110844 0.938757 0.600879 -1.603320 0.306523 -0.236737 0.777289 0.608864 -0.479926 2.422374 0.603137 -0.487370 6.622501 -4.425362 0.610351 3.410920 2.516489 1.001590 -7.987019 -61.118206 -9.561393 -42.429637 -116.221365 -39.486334 0.000002 -0.000002 -0.000006 7.280936 -15.609967 0.793635 0.000005 0.000010 -3.000001 -5.000198 -7.998802 0.000176 -7.328584 53.229402 8.175995 -35.083390 118.932295 36.415037 -0.000002 -0.000023 0.000006 4.751724 13.089615 -0.150479 -0.000003 -0.000005 3.000001 -5.000227 7.998722 -0.000178 0.301772 -177.241032 0.659212 -179.999991 0.000005 -1.043006 173.576431 -4.076337 -0.656539 0.000002 -0.000000 0.064156 68.013494 6.868809 2.259763 25.456916 -7.346684 0.000003 1.766449 176.108846 1.067180 -0.000005 -0.000004 -1.109980 -5.248486 0.971300 0.473100 -0.000004 -0.000001 -0.026654 68.941095 -6.895051 -2.133083 25.630860 7.354807 -0.259876 
53.746498 -46.015919 85.876793 -2.102772 0.938940 0.605516 -1.603694 0.306056 -0.237173 0.776443 0.608700 -0.479565 2.421533 0.602971 -0.486991 6.629187 -4.431503 0.609279 3.412422 2.522904 1.000422 -7.987378 -61.118793 -9.561897 -42.433001 -116.210246 -39.511169 0.000001 -0.000001 -0.000006 7.325060 -15.619027 0.800891 0.000002 0.000010 -3.000001 -5.000198 -7.998802 0.000176 -7.318508 53.228723 8.163665 -35.086180 118.932008 36.435385 -0.000000 -0.000025 0.000006 4.781114 13.100738 -0.154455 -0.000002 -0.000005 3.000000 -5.000228 7.998720 -0.000178 0.288703 -177.246032 0.651802 -179.999991 0.000005 -1.043006 173.574382 -4.070362 -0.657011 0.000003 -0.000000 0.063610 68.011274 6.868770 2.259293 25.456914 -7.346684 0.000003 1.753825 176.110813 1.073137 -0.000005 -0.000004 -1.109880 -5.245408 0.966576 0.473097 -0.000004 -0.000001 -0.026659 68.937092 -6.895068 -2.133038 25.630358 7.354810 -0.259138 
53.736599 -46.001820 85.865982 -2.094621 0.939135 0.610174 -1.604083 0.305587 -0.237608 0.775545 0.608541 -0.479170 2.420633 0.602811 -0.486578 6.636055 -4.437779 0.608165 3.413758 2.529379 0.999207 -7.987738 -61.119470 -9.562398 -42.435023 -116.199864 -39.534709 0.000002 -0.000002 -0.000006 7.369571 -15.628166 0.808223 0.000002 0.000010 -3.000001 -5.000199 -7.998802 0.000176 -7.308151 53.228064 8.150979 -35.087945 118.932527 36.454639 -0.000001 -0.000023 0.000006 4.810621 13.112059 -0.158474 -0.000006 -0.000005 3.000001 -5.000227 7.998721 -0.000179 0.275550 -177.250021 0.644408 -179.999991 0.000006 -1.043006 173.572292 -4.063380 -0.657374 0.000002 -0.000000 0.063055 68.008972 6.868796 2.258640 25.456912 -7.346683 0.000003 1.741152 176.111783 1.079157 -0.000005 -0.000004 -1.109780 -5.242350 0.961747 0.473096 -0.000004 -0.000001 -0.026665 68.933090 -6.895085 -2.132988 25.629849 7.354813 -0.258470 
